# xmcd
#
# Track frame offsets:
#	150
#	12517
#	20907
#	32361
#	43684
#	54252
#	66257
#	78075
#	89701
#	100183
#	111376
#	122718
#	132354
#	142646
#	154619
#	167121
#	177715
#	189547
#	200797
#	212096
#
# Disc length: 2948 seconds
#
# Revision: 0
# Processed by: cddbd v1.5.2PL0 Copyright (c) Steve Scherf et al.
# Submitted via: audiograbber 1.83.01
#
DISCID=1d0b8214
DTITLE=George Jones - My Country
DYEAR=1968
DGENRE=Country
TTITLE0=How Proud I Would Have Been
TTITLE1=The Green Grass Grows All Around
TTITLE2=I'm Wasting Good Paper
TTITLE3=Tell Me Something I Don't Know
TTITLE4=Let a Little Lovin' Come In
TTITLE5=Beneath Still Waters
TTITLE6=My Favorite Lies
TTITLE7=New Man In Town
TTITLE8=How Wonderful a Poor Man's Life Can Be
TTITLE9=I Stopped Living Yesterday
TTITLE10=As Long As I Live
TTITLE11=Let It Rain Let It Shine
TTITLE12=Developing My Pictures
TTITLE13=I Can't Go Home
TTITLE14=The Blue Side of Lonesome
TTITLE15=Even the Loser Likes To Dream
TTITLE16=Small Time Laboring Man
TTITLE17=Mansion Hill
TTITLE18=Till I hear From You
TTITLE19=The Stranger's Me
EXTD=
EXTT0=
EXTT1=
EXTT2=
EXTT3=
EXTT4=
EXTT5=
EXTT6=
EXTT7=
EXTT8=
EXTT9=
EXTT10=
EXTT11=
EXTT12=
EXTT13=
EXTT14=
EXTT15=
EXTT16=
EXTT17=
EXTT18=
EXTT19=
PLAYORDER=
